<svg width="1199" height="941" viewBox="0 0 2351.40 910.90" xmlns="http://www.w3.org/2000/svg" xmlns:xlink="http://www.w3.org/1999/xlink">
<g id="graph0" class="graph" transform="translate(4,906.9000244140625) scale(1)">
<title>finite_state_machine</title>
<polygon fill="white" stroke="transparent" points="-4,4 -4,-906.9 2347.4,-906.9 2347.4,4 -4,4"/>
<!-- 0 -->
<!-- 6 -->

<!-- 3&#45;&gt;9 -->
<g id="edge9" class="edge">
<title>3-&gt;9</title>
<path fill="none" stroke="black" d="M345.32,-471.32C379.9,-333.1 476.52,-46 682.49,-46 682.49,-46 682.49,-46 1464.55,-46 1557.18,-46 1633.81,-125.9 1681.22,-191.72"/>
<polygon fill="black" stroke="black" points="1678.51,-193.94 1687.14,-200.08 1684.22,-189.9 1678.51,-193.94"/>
<text text-anchor="middle" x="1186.56" y="-50.2" font-family="Helvetica,Arial,sans-serif" font-size="14.00">eol / ε</text>
</g>
<!-- 4&#45;&gt;4 -->
<g id="edge10" class="edge">
<title>4-&gt;4</title>
<path fill="none" stroke="black" d="M1443.53,-428.88C1445.49,-441.2 1452.16,-450.13 1463.55,-450.13 1471.56,-450.13 1477.23,-445.71 1480.58,-438.81"/>
<polygon fill="black" stroke="black" points="1484.03,-439.47 1483.57,-428.88 1477.33,-437.45 1484.03,-439.47"/>
<text text-anchor="middle" x="1463.55" y="-454.33" font-family="Helvetica,Arial,sans-serif" font-size="14.00">* / copyout</text>
</g>
<!-- 4&#45;&gt;8 -->
<g id="edge11" class="edge">
<title>4-&gt;8</title>
<path fill="none" stroke="black" d="M1517,-400.11C1549.95,-417.76 1593.52,-441.11 1632.92,-462.22"/>
<polygon fill="black" stroke="black" points="1631.32,-465.33 1641.78,-466.97 1634.62,-459.16 1631.32,-465.33"/>
<text text-anchor="middle" x="1576.67" y="-453.2" font-family="Helvetica,Arial,sans-serif" font-size="14.00">sep / discard</text>
</g>
<!-- 4&#45;&gt;9 -->
<g id="edge12" class="edge">
<title>4-&gt;9</title>
<path fill="none" stroke="black" d="M1520.56,-352.2C1555.03,-340.02 1600.06,-324.1 1639.82,-310.04"/>
<polygon fill="black" stroke="black" points="1641.01,-313.34 1649.27,-306.7 1638.68,-306.74 1641.01,-313.34"/>
<text text-anchor="middle" x="1576.67" y="-348.2" font-family="Helvetica,Arial,sans-serif" font-size="14.00">eol / ε</text>
</g>
<!-- 5&#45;&gt;5 -->
<g id="edge13" class="edge">
<title>5-&gt;5</title>
<path fill="none" stroke="black" d="M651.28,-424.65C655.68,-438.77 666.42,-448.56 683.49,-448.56 696.56,-448.56 705.91,-442.82 711.55,-433.8"/>
<polygon fill="black" stroke="black" points="714.76,-435.21 715.69,-424.65 708.38,-432.32 714.76,-435.21"/>
<text text-anchor="middle" x="683.49" y="-452.76" font-family="Helvetica,Arial,sans-serif" font-size="14.00">* / copyout</text>
</g>
<!-- 6 -->
<g id="node6" class="node">
<title>6</title>
<ellipse fill="#dddddd" stroke="black" cx="1186.56" cy="-166" rx="84.56" ry="84.56"/>
<text text-anchor="middle" x="1186.56" y="-161.8" font-family="Helvetica,Arial,sans-serif" font-size="14.00">6: InEscapedQuote</text>
</g><g id="edge4" class="edge">
<title>2-&gt;1</title>
<path fill="none" stroke="black" d="M270.63,-766.75C259.46,-760.77 247.69,-754.96 236.3,-750.2 192.13,-731.74 177.76,-736.7 132.89,-720 128.38,-718.32 123.77,-716.49 119.15,-714.59"/>
<polygon fill="black" stroke="black" points="120.27,-711.26 109.7,-710.57 117.54,-717.7 120.27,-711.26"/>
<text text-anchor="middle" x="184.6" y="-755.2" font-family="Helvetica,Arial,sans-serif" font-size="14.00">LF / discard</text>
</g>
<!-- 7 -->

<!-- 5&#45;&gt;6 -->
<g id="edge14" class="edge">
<title>5-&gt;6</title>
<path fill="none" stroke="black" d="M741.48,-274.78C756.03,-261.16 772.55,-248.25 790.04,-239.2 885,-190.05 1007.86,-173.51 1091.27,-168.15"/>
<polygon fill="black" stroke="black" points="1091.72,-171.63 1101.5,-167.54 1091.3,-164.64 1091.72,-171.63"/>
<text text-anchor="middle" x="922.7" y="-244.2" font-family="Helvetica,Arial,sans-serif" font-size="14.00">esc &amp; @quoting / discard</text>
</g>
<!-- 7 -->
<g id="node7" class="node">
<title>7</title>
<ellipse fill="#dddddd" stroke="black" cx="1186.56" cy="-382" rx="113.42" ry="113.42"/>
<text text-anchor="middle" x="1186.56" y="-377.8" font-family="Helvetica,Arial,sans-serif" font-size="14.00">7: InDoubleEscapedQuote</text>
</g><g id="edge5" class="edge">
<title>2-&gt;2</title>
<path fill="none" stroke="black" d="M302.42,-862.96C304.98,-876.37 313.72,-886.1 328.63,-886.1 339.69,-886.1 347.35,-880.74 351.62,-872.49"/>
<polygon fill="black" stroke="black" points="354.95,-873.55 354.83,-862.96 348.32,-871.32 354.95,-873.55"/>
<text text-anchor="middle" x="328.63" y="-890.3" font-family="Helvetica,Arial,sans-serif" font-size="14.00">* / discard</text>
</g>
<!-- 9 -->

<!-- 3&#45;&gt;8 -->
<g id="edge8" class="edge">
<title>3-&gt;8</title>
<path fill="none" stroke="black" d="M402.85,-553.25C408.97,-553.9 415.06,-554.49 420.95,-555 536.92,-565.08 566.08,-569 682.49,-569 682.49,-569 682.49,-569 1464.55,-569 1517.61,-569 1575.46,-558.93 1623.85,-547.58"/>
<polygon fill="black" stroke="black" points="1624.8,-550.95 1633.71,-545.21 1623.17,-544.14 1624.8,-550.95"/>
<text text-anchor="middle" x="1186.56" y="-573.2" font-family="Helvetica,Arial,sans-serif" font-size="14.00">sep / discard</text>
</g>
<!-- 9 -->
<g id="node9" class="node">
<title>9</title>
<ellipse fill="#ffdddd" stroke="black" cx="1734.3" cy="-277" rx="85.77" ry="85.77"/>
<text text-anchor="middle" x="1734.3" y="-272.8" font-family="Helvetica,Arial,sans-serif" font-size="14.00">9: EndColumnRow</text><ellipse fill="none" stroke="black" cx="1734.3" cy="-277" rx="89.77" ry="89.77"/>

</g>
<!-- 10 -->

<!-- 5&#45;&gt;7 -->
<g id="edge15" class="edge">
<title>5-&gt;7</title>
<path fill="none" stroke="black" d="M770.78,-357.53C777.29,-358.45 783.76,-359.29 790.04,-360 881.12,-370.26 984.55,-375.8 1062.8,-378.76"/>
<polygon fill="black" stroke="black" points="1063.06,-382.27 1073.18,-379.14 1063.32,-375.27 1063.06,-382.27"/>
<text text-anchor="middle" x="922.7" y="-383.2" font-family="Helvetica,Arial,sans-serif" font-size="14.00">quote &amp; @quoting / discard</text>
</g>
<!-- 6&#45;&gt;5 -->
<g id="edge16" class="edge">
<title>6-&gt;5</title>
<path fill="none" stroke="black" d="M1120.05,-219.02C1100.23,-232.86 1077.76,-246.54 1055.35,-256 944.64,-302.75 906.42,-278.23 790.04,-308.2 785.95,-309.25 781.79,-310.37 777.6,-311.54"/>
<polygon fill="black" stroke="black" points="776.43,-308.24 767.77,-314.35 778.35,-314.97 776.43,-308.24"/>
<text text-anchor="middle" x="922.7" y="-313.2" font-family="Helvetica,Arial,sans-serif" font-size="14.00">* / copyout</text>
</g>
<!-- 7&#45;&gt;4 -->
<g id="edge17" class="edge">
<title>7-&gt;4</title>
<path fill="none" stroke="black" d="M1299.8,-377.92C1331.42,-376.77 1364.87,-375.55 1393.18,-374.52"/>
<polygon fill="black" stroke="black" points="1393.49,-378.01 1403.36,-374.15 1393.24,-371.02 1393.49,-378.01"/>
<text text-anchor="middle" x="1351.59" y="-381.2" font-family="Helvetica,Arial,sans-serif" font-size="14.00">* / copyout</text>
</g>
<!-- 7&#45;&gt;5 -->
<g id="edge18" class="edge">
<title>7-&gt;5</title>
<path fill="none" stroke="black" d="M1079.65,-344.15C1071.5,-342.17 1063.34,-340.48 1055.35,-339.2 963.51,-324.49 857.23,-327.27 782.05,-332.49"/>
<polygon fill="black" stroke="black" points="781.37,-329.03 771.65,-333.24 781.88,-336.01 781.37,-329.03"/>
<text text-anchor="middle" x="922.7" y="-344.2" font-family="Helvetica,Arial,sans-serif" font-size="14.00">quote &amp; @quoting &amp; @double-quote / copyout</text>
</g>
<!-- 7&#45;&gt;8 -->
<g id="edge19" class="edge">
<title>7-&gt;8</title>
<path fill="none" stroke="black" d="M1288.1,-432.33C1323.74,-448.27 1364.63,-464.46 1403.42,-475 1473.86,-494.13 1555.22,-504.37 1619.52,-509.83"/>
<polygon fill="black" stroke="black" points="1619.43,-513.33 1629.69,-510.66 1620.01,-506.36 1619.43,-513.33"/>
<text text-anchor="middle" x="1463.55" y="-503.2" font-family="Helvetica,Arial,sans-serif" font-size="14.00">sep / discard</text>
</g>
<!-- 7&#45;&gt;9 -->
<g id="edge20" class="edge">
<title>7-&gt;9</title>
<path fill="none" stroke="black" d="M1286.33,-328.47C1322.17,-311.69 1363.63,-295.21 1403.42,-286.2 1479.69,-268.92 1568.4,-267.45 1634.61,-269.85"/>
<polygon fill="black" stroke="black" points="1634.5,-273.34 1644.63,-270.24 1634.77,-266.35 1634.5,-273.34"/>
<text text-anchor="middle" x="1463.55" y="-291.2" font-family="Helvetica,Arial,sans-serif" font-size="14.00">eol / ε</text>
</g>
<!-- 8&#45;&gt;3 -->
<g id="edge21" class="edge">
<title>8-&gt;3</title>
<path fill="none" stroke="black" d="M1644.66,-570.24C1593.84,-596.32 1527.75,-622 1464.55,-622 682.49,-622 682.49,-622 682.49,-622 586.61,-622 479.47,-594.21 408.67,-571.8"/>
<polygon fill="black" stroke="black" points="409.51,-568.4 398.92,-568.68 407.38,-575.06 409.51,-568.4"/>
<text text-anchor="middle" x="1186.56" y="-626.2" font-family="Helvetica,Arial,sans-serif" font-size="14.00">* / ε</text>
</g>
<!-- 10 -->
<g id="node10" class="node">
<title>10</title>
<ellipse fill="#ffdddd" stroke="black" cx="1971.46" cy="-277" rx="67.76" ry="67.76"/>
<text text-anchor="middle" x="1971.46" y="-272.8" font-family="Helvetica,Arial,sans-serif" font-size="14.00">10: InRowEnd</text><ellipse fill="none" stroke="black" cx="1971.46" cy="-277" rx="71.77" ry="71.77"/>

</g><g id="edge6" class="edge">
<title>3-&gt;4</title>
<path fill="none" stroke="black" d="M403.18,-543.63C615.05,-542.18 1216.83,-535.34 1299.77,-504 1344.17,-487.22 1385.58,-453.27 1415.53,-424"/>
<polygon fill="black" stroke="black" points="1418.27,-426.21 1422.89,-416.68 1413.33,-421.25 1418.27,-426.21"/>
<text text-anchor="middle" x="922.7" y="-542.2" font-family="Helvetica,Arial,sans-serif" font-size="14.00">* / copyout</text>
</g>
<!-- 11 -->

<!-- 9&#45;&gt;10 -->
<g id="edge22" class="edge">
<title>9-&gt;10</title>
<path fill="none" stroke="black" d="M1824.2,-277C1845.66,-277 1868.48,-277 1889.55,-277"/>
<polygon fill="black" stroke="black" points="1889.74,-280.5 1899.74,-277 1889.74,-273.5 1889.74,-280.5"/>
<text text-anchor="middle" x="1869.38" y="-281.2" font-family="Helvetica,Arial,sans-serif" font-size="14.00">* / ε</text>
</g>
<!-- 11 -->
<g id="node11" class="node">
<title>11</title>
<ellipse fill="#dddddd" stroke="black" cx="2283.81" cy="-666" rx="49.89" ry="49.89"/>
<text text-anchor="middle" x="2283.81" y="-661.8" font-family="Helvetica,Arial,sans-serif" font-size="14.00">11: CRLF</text>
</g>
<!-- 12 -->

<!-- 10&#45;&gt;11 -->
<g id="edge23" class="edge">
<title>10-&gt;11</title>
<path fill="none" stroke="black" d="M2016.93,-332.73C2078.42,-409.81 2188.3,-547.53 2245.65,-619.42"/>
<polygon fill="black" stroke="black" points="2243.07,-621.8 2252.04,-627.43 2248.54,-617.43 2243.07,-621.8"/>
<text text-anchor="middle" x="2133.66" y="-566.2" font-family="Helvetica,Arial,sans-serif" font-size="14.00">CR &amp; @isCRLF / discard</text>
</g>
<!-- 12 -->
<g id="node12" class="node">
<title>12</title>
<ellipse fill="#dddddd" stroke="black" cx="2283.81" cy="-67" rx="59.68" ry="59.68"/>
<text text-anchor="middle" x="2283.81" y="-62.8" font-family="Helvetica,Arial,sans-serif" font-size="14.00">12: EndRow</text>
</g><g id="edge7" class="edge">
<title>3-&gt;5</title>
<path fill="none" stroke="black" d="M393.53,-507.42C450.62,-474.74 534.7,-426.6 597.46,-390.68"/>
<polygon fill="black" stroke="black" points="599.23,-393.7 606.17,-385.69 595.75,-387.62 599.23,-393.7"/>
<text text-anchor="middle" x="498.94" y="-494.2" font-family="Helvetica,Arial,sans-serif" font-size="14.00">quote &amp; @quoting / discard</text>
</g>
<g id="node1" class="node">
<title>1</title>
<ellipse fill="#dddddd" stroke="black" cx="57.44" cy="-686" rx="57.39" ry="57.39"/>
<text text-anchor="middle" x="57.44" y="-681.8" font-family="Helvetica,Arial,sans-serif" font-size="14.00">1: StartRow</text>
</g>
<!-- 2 -->
<g id="node2" class="node">
<title>2</title>
<ellipse fill="#dddddd" stroke="black" cx="328.63" cy="-801" rx="67.19" ry="67.19"/>

<text text-anchor="middle" x="328.63" y="-796.8" font-family="Helvetica,Arial,sans-serif" font-size="14.00">2: InComment</text></g><g id="edge1" class="edge">
<title>1-&gt;1</title>
<path fill="none" stroke="black" d="M34.14,-738.53C35.77,-751.64 43.54,-761.44 57.44,-761.44 67.55,-761.44 74.41,-756.27 78.03,-748.41"/>
<polygon fill="black" stroke="black" points="81.47,-749.1 80.75,-738.53 74.72,-747.25 81.47,-749.1"/>
<text text-anchor="middle" x="57.44" y="-765.64" font-family="Helvetica,Arial,sans-serif" font-size="14.00">eol / discard</text>
</g>
<!-- 0&#45;&gt;2 -->

<!-- 1 -->
<g id="edge2" class="edge">
<title>1-&gt;2</title>
<path fill="none" stroke="black" d="M89.99,-733.48C101.79,-747.72 116.38,-761.94 132.89,-771 168.66,-790.64 213.37,-798.49 250.93,-801.27"/>
<polygon fill="black" stroke="black" points="251.12,-804.79 261.32,-801.93 251.56,-797.81 251.12,-804.79"/>
<text text-anchor="middle" x="184.6" y="-803.2" font-family="Helvetica,Arial,sans-serif" font-size="14.00">comment / discard</text>
</g>
<!-- 0&#45;&gt;1 -->

<!-- 3 -->
<g id="node3" class="node">
<title>3</title>
<ellipse fill="#ffdddd" stroke="black" cx="328.63" cy="-544" rx="70.15" ry="70.15"/>
<ellipse fill="none" stroke="black" cx="328.63" cy="-544" rx="74.14" ry="74.14"/>
<text text-anchor="middle" x="328.63" y="-539.8" font-family="Helvetica,Arial,sans-serif" font-size="14.00">3: StartColumn</text>
</g><g id="node5" class="node">
<title>5</title>
<ellipse fill="#dddddd" stroke="black" cx="683.49" cy="-342" rx="88.61" ry="88.61"/>
<text text-anchor="middle" x="683.49" y="-337.8" font-family="Helvetica,Arial,sans-serif" font-size="14.00">5: InQuotedColumn</text>
</g><g id="edge3" class="edge">
<title>1-&gt;3</title>
<path fill="none" stroke="black" d="M105.04,-653.31C114.13,-647.37 123.69,-641.42 132.89,-636.2 170.67,-614.77 214.25,-593.81 250.59,-577.31"/>
<polygon fill="black" stroke="black" points="252.47,-580.3 260.14,-572.99 249.59,-573.92 252.47,-580.3"/>
<text text-anchor="middle" x="184.6" y="-641.2" font-family="Helvetica,Arial,sans-serif" font-size="14.00">* / ε</text>
</g>
<g id="node4" class="node">
<title>4</title>
<ellipse fill="#dddddd" stroke="black" cx="1463.55" cy="-372" rx="60.26" ry="60.26"/>

<text text-anchor="middle" x="1463.55" y="-367.8" font-family="Helvetica,Arial,sans-serif" font-size="14.00">4: InColumn</text></g><!-- 8 -->
<g id="node8" class="node">
<title>8</title>
<ellipse fill="#dddddd" stroke="black" cx="1734.3" cy="-516" rx="104.78" ry="104.78"/>

<text text-anchor="middle" x="1734.3" y="-511.8" font-family="Helvetica,Arial,sans-serif" font-size="14.00">8: EndColumnSeparator</text></g>
<!-- 10&#45;&gt;12 -->
<g id="edge24" class="edge">
<title>10-&gt;12</title>
<path fill="none" stroke="black" d="M2031.2,-237.25C2087.03,-199.48 2170.45,-143.03 2225.72,-105.63"/>
<polygon fill="black" stroke="black" points="2227.69,-108.53 2234.01,-100.02 2223.76,-102.73 2227.69,-108.53"/>
<text text-anchor="middle" x="2133.66" y="-219.2" font-family="Helvetica,Arial,sans-serif" font-size="14.00">* / discard</text>
</g>
<!-- 11&#45;&gt;1 -->
<g id="edge25" class="edge">
<title>11-&gt;1</title>
<path fill="none" stroke="black" d="M2234.68,-676.09C2173.88,-687.94 2065.9,-706 1972.46,-706 327.63,-706 327.63,-706 327.63,-706 258.29,-706 179.18,-699.32 124.76,-693.68"/>
<polygon fill="black" stroke="black" points="124.86,-690.17 114.55,-692.6 124.13,-697.13 124.86,-690.17"/>
<text text-anchor="middle" x="1351.59" y="-710.2" font-family="Helvetica,Arial,sans-serif" font-size="14.00">* / ε</text>
</g>
<!-- 11&#45;&gt;1 -->
<g id="edge26" class="edge">
<title style="">11-&gt;1</title>
<path fill="none" stroke="black" d="M2233.63,-666C2172.43,-666 2064.73,-666 1972.46,-666 1462.55,-666 1462.55,-666 1462.55,-666 1223.06,-666 1163.19,-667 923.7,-667 327.63,-667 327.63,-667 327.63,-667 258.31,-667 179.19,-673.35 124.77,-678.7"/>
<polygon fill="black" stroke="black" points="124.16,-675.25 114.56,-679.73 124.86,-682.21 124.16,-675.25"/>
<text text-anchor="middle" x="1351.59" y="-671.2" font-family="Helvetica,Arial,sans-serif" font-size="14.00" style="">LF / discard</text>
</g>
<!-- 12&#45;&gt;1 -->
<g id="edge27" class="edge">
<title>12-&gt;1</title>
<path fill="none" stroke="black" d="M2227.24,-47.53C2165.74,-27.75 2063.27,0 1972.46,0 327.63,0 327.63,0 327.63,0 195.44,0 101.27,-446.94 69.87,-619.31"/>
<polygon fill="black" stroke="black" points="66.4,-618.81 68.07,-629.28 73.29,-620.06 66.4,-618.81"/>
<text text-anchor="middle" x="1351.59" y="-4.2" font-family="Helvetica,Arial,sans-serif" font-size="14.00">* / ε</text>
</g>
</g>
</svg>